<?xml version="1.0" encoding="UTF-8"?>
<svg width="752pt" height="752pt" version="1.1" viewBox="0 0 752 752" xmlns="http://www.w3.org/2000/svg">
 <g>
  <path d="m512.34 452.48 4.0273-5.4453h-11.793l-26.047 36.984-14.066-17.047-7.293 6.0156 21.93 26.66z"/>
  <path d="m371.27 323.91h56.828v9.4727h-56.828z"/>
  <path d="m371.27 357.06h56.828v9.4727h-56.828z"/>
  <path d="m371.27 390.21h56.828v9.4727h-56.828z"/>
  <path d="m333.38 319.17h18.941v18.941h-18.941z"/>
  <path d="m333.38 352.32h18.941v18.941h-18.941z"/>
  <path d="m333.38 385.47h18.941v18.941h-18.941z"/>
  <path d="m541.75 412.32v-11.508c-0.011718-14.113-5.625-27.645-15.605-37.625-9.9766-9.9805-23.512-15.594-37.625-15.605h-2.4609c-12.566-0.011719-24.723 4.4531-34.289 12.598v-97.84h-142.07v104.19h-23.68v-42.625c0-8.7891-3.4922-17.223-9.707-23.441-6.2188-6.2148-14.648-9.707-23.441-9.707h-19.605c-1.5508-6.0039-5.9414-10.871-11.758-13.027-5.8125-2.1562-12.312-1.3281-17.402 2.2109-5.0898 3.543-8.125 9.3516-8.125 15.551 0 6.2031 3.0352 12.008 8.125 15.551 5.0898 3.543 11.59 4.3672 17.402 2.2109 5.8164-2.1562 10.207-7.0234 11.758-13.027h19.605c6.2812 0 12.301 2.4961 16.742 6.9375 4.4414 4.4414 6.9375 10.465 6.9375 16.742v42.621l-43.285 0.003906c-1.5508-6.0039-5.9414-10.871-11.758-13.027-5.8125-2.1562-12.312-1.3281-17.402 2.2109-5.0898 3.543-8.125 9.3516-8.125 15.551s3.0352 12.008 8.125 15.551c5.0898 3.5391 11.59 4.3672 17.402 2.2109 5.8164-2.1562 10.207-7.0234 11.758-13.027h43.285v47.359c0 6.2812-2.4961 12.305-6.9375 16.742-4.4414 4.4414-10.461 6.9375-16.742 6.9375h-18.945c0.089844-6.2812-2.8906-12.207-7.9883-15.879-5.0938-3.6719-11.664-4.6211-17.59-2.543-5.9258 2.0742-10.469 6.9141-12.16 12.961-1.6953 6.0469-0.32812 12.543 3.6602 17.395 3.9883 4.8516 10.094 7.4492 16.355 6.957 6.2617-0.48828 11.887-4.0078 15.07-9.418h21.598c8.793 0 17.223-3.4961 23.441-9.7109 6.2148-6.2188 9.707-14.648 9.707-23.441v-47.359h23.68v89.98h108.93v45.797c-0.039062 5.3828 2.0586 10.566 5.8281 14.406 3.7734 3.8438 8.9141 6.0352 14.297 6.0977h22.496v-9.4688h-22.496c-5.9766-0.12891-10.734-5.0547-10.656-11.035v-82.121c-0.078125-5.9766 4.6797-10.902 10.656-11.031h92.348c5.9805 0.12891 10.738 5.0547 10.656 11.031v17.383h9.4727v-17.383c0.007813-7.0117-3.5625-13.547-9.4727-17.332zm-326.77-107.36c-3.832 0-7.2852-2.3086-8.75-5.8477-1.4688-3.5391-0.65625-7.6133 2.0508-10.32 2.7109-2.7109 6.7852-3.5195 10.324-2.0547 3.5391 1.4648 5.8477 4.918 5.8477 8.75 0 2.5117-1 4.9219-2.7773 6.6992-1.7734 1.7734-4.1836 2.7734-6.6953 2.7734zm0 75.773c-3.832 0-7.2852-2.3086-8.75-5.8477-1.4688-3.5391-0.65625-7.6133 2.0508-10.324 2.7109-2.707 6.7852-3.5156 10.324-2.0508s5.8477 4.918 5.8477 8.75c0 2.5117-1 4.9219-2.7773 6.6992-1.7734 1.7734-4.1836 2.7734-6.6953 2.7734zm0 75.773c-3.832 0-7.2852-2.3086-8.75-5.8477-1.4688-3.5391-0.65625-7.6133 2.0508-10.324 2.7109-2.707 6.7852-3.5195 10.324-2.0508 3.5391 1.4648 5.8477 4.918 5.8477 8.75 0 2.5117-1 4.9219-2.7773 6.6953-1.7734 1.7773-4.1836 2.7773-6.6953 2.7773zm104.19-184.7h123.13v14.207h-123.13zm99.453 157.84v26.855h-99.453v-161.02h123.13v75.109c-6.1797 8.8633-9.4883 19.41-9.4727 30.215v9.4727c-4.1094 1.3164-7.6953 3.9023-10.246 7.3789-2.5508 3.4805-3.9375 7.6758-3.9609 11.988zm89.98-20.504h-42.625v-9.0469c0.13672-5.2578 2.3516-10.25 6.1602-13.879 3.8086-3.6289 8.8984-5.6055 14.156-5.4883h1.9922c5.2578-0.11719 10.348 1.8594 14.156 5.4883 3.8086 3.6289 6.0234 8.6211 6.1602 13.879zm9.4727 0-0.003906-9.0469c-0.13672-7.7695-3.3477-15.168-8.9336-20.574-5.582-5.4062-13.082-8.3789-20.852-8.2656h-1.9922c-7.7695-0.11328-15.27 2.8594-20.852 8.2656-5.5859 5.4062-8.7969 12.805-8.9336 20.574v9.0469h-14.207v-8.3359c0.023437-11.598 4.6406-22.715 12.844-30.914 8.1992-8.1992 19.316-12.82 30.914-12.844h2.4609c11.598 0.023437 22.715 4.6445 30.914 12.844 8.2031 8.1992 12.82 19.316 12.844 30.914v8.3359c-0.39062-0.027344-0.78906-0.027344-1.1836 0z"/>
  <path d="m541.75 511.68c0.050782 2.9102-1.0586 5.7188-3.0859 7.8086-2.0273 2.0859-4.8008 3.2812-7.7109 3.3203h-31.824v9.4727h31.824v-0.003906c5.418-0.046875 10.594-2.2461 14.395-6.1055 3.8008-3.8633 5.9141-9.0742 5.875-14.492v-22.023h-9.4727z"/>
  <path d="m541.75 461.25h9.4727v18.941h-9.4727z"/>
  <path d="m470.72 522.81h18.941v9.4727h-18.941z"/>
 </g>
</svg>
